<svg id="Layer_1" xmlns="http://www.w3.org/2000/svg" viewBox="0 0 1024 768"><style>.st0{fill:#FFFFFF;} .st1{font-family:-apple-system,BlinkMacSystemFont,avenir next,avenir,helvetica,helvetica neue,ubuntu,roboto,noto,segoe ui,arial,sans-serif;} .st2{font-size:36px;} .st3{fill:none;stroke:rgba(255,255,255,.5);stroke-width:6;stroke-miterlimit:10;}</style><text transform="translate(481.7 62.552)"><tspan x="0" y="0" class="st0 st1 st2">Write </tspan><tspan x="-2.8" y="43.2" class="st0 st1 st2">HTML</tspan></text><text transform="translate(690.26 226.318)"><tspan x="0" y="0" class="st0 st1 st2">Add </tspan><tspan x="3.1" y="43.2" class="st0 st1 st2">CSS</tspan></text><text transform="translate(841.407 480.052)" class="st0 st1 st2">Test</text><text transform="translate(719.072 709.146)"><tspan x="0" y="0" class="st0 st1 st2">Change </tspan><tspan x="14.7" y="43.2" class="st0 st1 st2">HTML</tspan></text><text transform="translate(206.804 691.313)"><tspan x="0" y="0" class="st0 st1 st2">Add </tspan><tspan x="-49.7" y="43.2" class="st0 st1 st2">JavaScript</tspan></text><text transform="translate(39.5 432.182)"><tspan x="0" y="0" class="st0 st1 st2">Change </tspan><tspan x="31.2" y="43.2" class="st0 st1 st2">CSS</tspan></text><text transform="translate(322.648 251.42)"><tspan x="0" y="0" class="st0 st1 st2">Combine </tspan><tspan x="-27.8" y="43.2" class="st0 st1 st2">components</tspan></text><path class="st3" d="M736.7 143.5l19.3 29.3 24.2 7.5 12.8-7.7v-15.5l-15.2 4.6 6.4 46.2 45.3 19.2 24.9-15.1h19.5l29.1 38.2-11.5 39.8H856l1-32.4 23 7.1 12.8 35.1 29.1 23.9 52.1 8.6v-18.9l-33 1-6.3 43.5 9.7 54.9 35.1 11.5 10.2 39.5-19 38.2h-41.2l2.9-28.2 21.7 5.3 9.6 54.4-36.4 30.4-63.9-9.1-10.2 21.7-1.3 40.3-32 29.9-35.8-23 14.1-14.2 5.1 48.5h-34.9l-24.9-17-81.5 21v32h-23.6l-48.5-23.4-8.9-31-43.5-11.5-39.6 20.1 19.2 22.9 2.5-24.3-58.8-41-29.3 11-47.3 58-83.1-1.3-40.9-44.7 8.9-49.8-51.1-51.1v29.5l29.3-30.8-1.2-65.2-28.7 8.9-39.3-8.9 5.3-62.6 35.8-16.6 49.9-40.9-5.1-38.4-23-17.8 12.8-65.2 44.8 5.1-15.4 24.3-19.1-16.6 17.8-51.2 44.8 1.3 5.4-20.4 59.7-2.6 2.6 33.2 39.6 1.3 16.6-15.3 14.1-35.5 47.3-9.3 28.1 23.1 74.1-23.1 61.3-30.6 34.9 15.3z"/></svg>
